<svg xmlns="http://www.w3.org/2000/svg" viewBox="0 0 32 32">
  <defs>
    <linearGradient id="faviconStroke" x1="4" y1="4" x2="28" y2="28" gradientUnits="userSpaceOnUse">
      <stop offset="0" stop-color="#00ff88" />
      <stop offset="1" stop-color="#00b4ff" />
    </linearGradient>
  </defs>

  <rect x="1.5" y="1.5" width="29" height="29" rx="8.5" fill="#020604" />
  <rect x="1.5" y="1.5" width="29" height="29" rx="8.5" fill="none" stroke="url(#faviconStroke)" stroke-width="1.2" opacity="0.85" />

  <path
    d="M14 9.2C13.1 8.4 12 8 10.7 8C8.9 8 7.7 8.9 7.7 10.4C7.7 11.8 8.7 12.5 10.7 12.9L12 13.2C13.6 13.5 14.4 14.2 14.4 15.4C14.4 17 13.1 18.1 11.1 18.1C9.7 18.1 8.4 17.6 7.5 16.7"
    fill="none"
    stroke="#00ff88"
    stroke-width="2.1"
    stroke-linecap="round"
    stroke-linejoin="round"
  />
  <circle cx="12.55" cy="22.1" r="1.45" fill="#00ff88" />
  <path
    d="M17.2 23V8.8L20.2 14L23.2 8.8V23"
    fill="none"
    stroke="#ffffff"
    stroke-width="2.1"
    stroke-linecap="round"
    stroke-linejoin="round"
  />
</svg>
